<?xml version="1.0" encoding="UTF-8"?>
<svg version="1.1" xmlns="http://www.w3.org/2000/svg" width="180" height="180">
<path d="M0 0 C0.66 0 1.32 0 2 0 C6.26870149 8.29728853 10.24747123 16.67173383 14 25.21386719 C17.21722302 32.53116447 20.58839914 39.77167067 24 47 C27.66651247 47.08796382 31.33274918 47.14071247 35 47.1875 C36.02996094 47.21263672 37.05992188 47.23777344 38.12109375 47.26367188 C45.78855263 47.33692785 51.74746604 46.74658423 57.8125 41.625 C62.58832024 35.89401572 64 31.44422932 64 24 C63.38764258 18.57489602 61.52045223 14.18648373 58 10 C52.59451941 6.0561412 47.69818255 4.91779223 41.140625 4.68359375 C40.02558594 4.64169922 38.91054687 4.59980469 37.76171875 4.55664062 C36.60285156 4.51732422 35.44398437 4.47800781 34.25 4.4375 C33.07566406 4.39431641 31.90132812 4.35113281 30.69140625 4.30664062 C27.79438549 4.20065206 24.89728065 4.09858362 22 4 C22 2.68 22 1.36 22 0 C50.66589346 -0.77842212 50.66589346 -0.77842212 60 7 C65.49972391 12.49972391 67.56942857 18.18636735 68.4375 25.875 C68.0740258 33.15902288 65.62682261 39.99362777 60.25 45 C52.47092214 51.53704022 44.16579815 51.39462425 34.5 51.1875 C32.69402344 51.16719727 32.69402344 51.16719727 30.8515625 51.14648438 C27.90057027 51.11135352 24.95052588 51.06215996 22 51 C13.93247761 36.31397623 13.93247761 36.31397623 11.06640625 28.6796875 C9.63994709 25.09525167 8.01391834 21.61644475 6.375 18.125 C6.07327881 17.48175781 5.77155762 16.83851562 5.46069336 16.17578125 C4.00982538 13.09830522 2.52780006 10.03986667 1 7 C-3.07821299 14.98987388 -6.87055142 23.10468322 -10.625 31.25 C-11.48714299 33.11862228 -12.34976094 34.98702068 -13.21347046 36.85491943 C-13.99185838 38.53852536 -14.76868481 40.22285297 -15.54541016 41.90722656 C-16.98285037 44.96353617 -18.47694938 47.98557007 -20 51 C-20.99 51 -21.98 51 -23 51 C-22.36581216 45.90603958 -20.09948337 41.67915726 -17.875 37.125 C-17.05294377 35.41818139 -16.2313343 33.71114754 -15.41015625 32.00390625 C-15.00168457 31.15844238 -14.59321289 30.31297852 -14.17236328 29.44189453 C-12.51871045 25.99753059 -10.91489013 22.53091843 -9.3125 19.0625 C-6.32708473 12.64525223 -3.2074288 6.30911819 0 0 Z " fill="#C3053B" transform="translate(50,64)"/>
<path d="M0 0 C1.2578125 2.109375 1.2578125 2.109375 2 4 C-1.12290635 3.51421457 -3.99580359 3.0013988 -7 2 C-12.37567447 1.59663049 -17.45017354 1.60597632 -22.6875 2.9375 C-25.29246639 5.2608484 -25.54835054 6.09842505 -26.125 9.4375 C-26.24353499 12.48483713 -26.17613148 13.6957729 -24.625 16.375 C-20.20321317 19.11229661 -15.40835599 20.37346528 -10.40234375 21.67578125 C-4.7489788 23.20210452 -1.12070338 24.77363756 3 29 C4.50650776 33.51952327 4.74563919 37.35959378 2.75 41.75 C0.17423499 45.06169787 -2.02340283 46.67446761 -6 48 C-23.34042899 49.05833604 -23.34042899 49.05833604 -29.9375 43.3125 C-30.288125 42.879375 -30.63875 42.44625 -31 42 C-30.67 41.01 -30.34 40.02 -30 39 C-29.42894531 39.3609375 -28.85789062 39.721875 -28.26953125 40.09375 C-21.30778947 44.0782127 -14.97674606 45.25453411 -7 44 C-4.3214246 42.64205927 -2.48968629 41.65291505 -0.6875 39.25 C0.26539512 36.13143415 0.12452507 33.23765175 0 30 C-0.66 30 -1.32 30 -2 30 C-2 29.34 -2 28.68 -2 28 C-2.73863281 27.82984375 -3.47726563 27.6596875 -4.23828125 27.484375 C-23.75181164 22.82294716 -23.75181164 22.82294716 -28.1875 18.3125 C-30.49225201 14.10036701 -30.81355691 10.71006633 -30 6 C-28.24073334 1.39560352 -25.2776244 0.02726417 -21 -2 C-14.46575852 -4.5293838 -6.04813023 -3.36286079 0 0 Z " fill="#C1053B" transform="translate(149,67)"/>
</svg>
